<svg xmlns="http://www.w3.org/2000/svg" width="60" height="20" viewBox="0 0 60 20">
    <g fill="none" fill-rule="evenodd">
        <path fill="#282828" fill-rule="nonzero" d="M-24-32h375v86H-24z"/>
        <g fill="#FFF">
            <path d="M44.425 15.337c-1.91-.263-1.805-2.29-1.805-3.838V8.166h3.308c.26 0 .472-.212.472-.474v-3.55a.473.473 0 0 0-.472-.473H42.62l.001-3.196A.474.474 0 0 0 42.15 0h-3.96a.47.47 0 0 0-.471.472V10.95c0 2.006-.081 4.213.912 6.036 1.083 1.99 3.348 2.88 5.55 2.896h3.165c.26 0 .472-.212.472-.474v-3.494a.473.473 0 0 0-.475-.473c-.956.006-2.012.02-2.917-.104zM56.59 15.337c-1.91-.263-1.804-2.29-1.804-3.838V8.166h3.307c.26 0 .472-.212.472-.474v-3.55a.473.473 0 0 0-.472-.473h-3.307V.473A.474.474 0 0 0 54.314 0h-3.958a.471.471 0 0 0-.473.473V10.95c0 2.006-.08 4.213.912 6.036 1.083 1.99 3.349 2.88 5.55 2.896h3.165c.261 0 .473-.212.473-.474v-3.494a.473.473 0 0 0-.475-.473c-.957.006-2.012.02-2.918-.104z"/>
            <path fill-rule="nonzero" d="M27.039 3.658c-4.503 0-8.154 3.657-8.154 8.17 0 4.512 3.65 8.17 8.154 8.17 4.503 0 8.154-3.658 8.154-8.17 0-2.167-.86-4.245-2.388-5.778a8.146 8.146 0 0 0-5.766-2.392zm0 12.048a3.875 3.875 0 0 1-3.871-3.879 3.875 3.875 0 0 1 3.87-3.878 3.875 3.875 0 0 1 3.872 3.878 3.883 3.883 0 0 1-1.134 2.743 3.867 3.867 0 0 1-2.737 1.136zM11.44.473V4.38C5.906 1.914-.406 6.395.02 12.428c.403 5.717 6.689 9.298 11.788 6.711a8.243 8.243 0 0 0 4.474-7.294V.473A.473.473 0 0 0 15.809 0h-3.897a.473.473 0 0 0-.473.473zM8.185 15.706a3.875 3.875 0 0 1-3.87-3.878 3.875 3.875 0 0 1 3.87-3.88 3.875 3.875 0 0 1 3.872 3.88 3.914 3.914 0 0 1-3.872 3.878z"/>
        </g>
    </g>
</svg>
