<svg xmlns="http://www.w3.org/2000/svg" width="84" height="28" viewBox="0 0 84 28">
    <g fill="none" fill-rule="evenodd">
        <path fill="#9BF3DB" fill-opacity="0" d="M-147-32h1440V72H-147z"/>
        <g fill="#000">
            <path d="M62.195 21.471c-2.674-.367-2.526-3.206-2.526-5.372v-4.667h4.63a.662.662 0 0 0 .661-.663V5.8a.662.662 0 0 0-.661-.663h-4.63V.663A.663.663 0 0 0 59.01 0h-5.544a.659.659 0 0 0-.66.66v14.67c0 2.808-.114 5.898 1.276 8.45 1.517 2.786 4.688 4.032 7.77 4.054h4.432a.662.662 0 0 0 .661-.662V22.28a.663.663 0 0 0-.665-.663c-1.339.01-2.817.029-4.084-.146zM79.226 21.471c-2.673-.367-2.526-3.206-2.526-5.372v-4.667h4.63a.662.662 0 0 0 .661-.663V5.8a.662.662 0 0 0-.66-.663H76.7V.663A.663.663 0 0 0 76.04 0h-5.542a.66.66 0 0 0-.662.662v14.667c0 2.809-.113 5.899 1.277 8.451 1.517 2.786 4.688 4.032 7.77 4.054h4.431a.662.662 0 0 0 .662-.662V22.28a.663.663 0 0 0-.665-.663c-1.34.01-2.817.029-4.085-.146z"/>
            <path fill-rule="nonzero" d="M37.855 5.12c-6.305 0-11.416 5.121-11.416 11.438s5.111 11.438 11.416 11.438c6.304 0 11.415-5.12 11.415-11.438a11.45 11.45 0 0 0-3.344-8.087 11.404 11.404 0 0 0-8.071-3.35zm0 16.869a5.425 5.425 0 0 1-5.42-5.43c0-3 2.426-5.43 5.42-5.43a5.425 5.425 0 0 1 5.42 5.43c0 1.44-.572 2.82-1.588 3.84a5.414 5.414 0 0 1-3.832 1.59zM16.015.663V6.13C8.27 2.68-.566 8.953.028 17.4c.564 8.004 9.365 13.017 16.504 9.395a11.54 11.54 0 0 0 6.263-10.212V.663A.662.662 0 0 0 22.133 0h-5.456a.662.662 0 0 0-.662.663zm-4.554 21.326a5.425 5.425 0 0 1-5.42-5.43c0-3 2.427-5.43 5.42-5.43a5.425 5.425 0 0 1 5.42 5.43 5.48 5.48 0 0 1-5.42 5.43z"/>
        </g>
    </g>
</svg>
